<svg width="21" height="20" viewBox="0 0 21 20" fill="none" xmlns="http://www.w3.org/2000/svg">
<g clip-path="url(#clip0_1_121)">
<path fill-rule="evenodd" clip-rule="evenodd" d="M19.3609 12.2656L18.4234 4.76562C18.3053 3.82788 17.5077 3.12468 16.5625 3.125H3.125C2.43464 3.125 1.875 3.68464 1.875 4.375V11.25C1.875 11.9404 2.43464 12.5 3.125 12.5H6.48906L9.44063 18.4047C9.5466 18.6165 9.76318 18.7502 10 18.75C11.7259 18.75 13.125 17.3509 13.125 15.625V14.375H17.5C18.0382 14.3752 18.5506 14.1441 18.9067 13.7404C19.2628 13.3368 19.4282 12.7996 19.3609 12.2656ZM6.25 11.25H3.125V4.375H6.25V11.25ZM17.9688 12.9133C17.8509 13.0489 17.6797 13.1262 17.5 13.125H12.5C12.1548 13.125 11.875 13.4048 11.875 13.75V15.625C11.8752 16.5189 11.2445 17.2886 10.368 17.4641L7.5 11.7273V4.375H16.5625C16.8776 4.37489 17.1434 4.60929 17.1828 4.92188L18.1203 12.4219C18.144 12.6 18.0886 12.7795 17.9688 12.9133Z" fill="#9CBAB5"/>
</g>
<defs>
<clipPath id="clip0_1_121">
<rect width="20" height="20" fill="white" transform="translate(0.625)"/>
</clipPath>
</defs>
</svg>
